<svg data-name="Layer 1" xmlns="http://www.w3.org/2000/svg" width="364.51249" height="477.89794" viewBox="0 0 364.51249 477.89794" xmlns:xlink="http://www.w3.org/1999/xlink"><path d="M570.35989,326.03179c-10.74653-24.55209-30.43566-45.61482-55.35714-55.47447s-54.94794-7.518-76.60045,8.27634-33.11808,45.33095-25.40713,70.99871c5.8233,19.38425,20.8491,34.3212,33.88446,49.80472s25.07434,34.28163,22.88943,54.40341c-1.122,10.33285-5.96369,20.03025-6.70849,30.39712-1.058,14.726,6.24616,28.7492,14.71742,40.841,29.28321,41.79868,76.34374,71.333,127.0737,76.91044s104.15255-13.78776,137.63046-52.30875c13.10332-15.07718,23.44421-33.97376,22.63092-53.93263-.92861-22.78881-16.30379-42.80472-34.6975-56.2904s-39.92242-21.88272-60.14846-32.42308A311.65382,311.65382,0,0,1,569.316,323.34006Z" transform="translate(-410.59095 -233.91104)" fill="#cda0ff"/><path d="M686.052,521.43334c-54.65567-3.85506-109.77256,4.804-161.37122,21.09524C575.95527,540.96069,644.53535,532.76879,686.052,521.43334Z" transform="translate(-410.59095 -233.91104)"/><path d="M542.51094,346.698c-12.05957,1.62988-24.80957,3.23975-38.29981,4.71-2.87012.31983-5.79.62988-8.73.93994-14.60986,1.50977-30.0498,2.87012-46.3501,3.96q-3.14942.21021-6.33984.41016c2.1499-.23,4.27978-.4502,6.39014-.68018q24.59985-2.595,46.35986-4.81,4.28979-.43506,8.48-.8501C517.67109,349.00805,530.4709,347.77758,542.51094,346.698Z" transform="translate(-410.59095 -233.91104)"/><path d="M505.14131,701.01781q-24.48048-.85473-52.6499-1.31005c-.42042-.04-.84034-.1001-1.26026-.16993-6.31006-1.16992-11.62012-6.48974-11.31006-13.20019-1.04-108.96973-1.73-221.81983-1.95019-321.21,3.51025,104.23,7.12011,206.8999,10.30029,310.82031-2.16016,6,3.29,10.36963,13.97022,13.52,10.21,3.00977,25.21,4.90967,42.8999,6.04,70.77,4.50976,184.54-3.21,206.91992-.46-43.5-311.34033,118.56006-373.09033-159.1499-349.26026q-5.10059.43506-10.40039.91016c3.48047-.47021,6.89013-.93994,10.25-1.41016,164.5-23.12988,191.73047-46.72021,166.16015,183.89014C709.64131,757.9978,789.66133,711.12768,505.14131,701.01781Z" transform="translate(-410.59095 -233.91104)"/><path d="M546.23558,236.93917c3.37811,8.61928,6.82161,17.63359,11.94845,25.40154a144.13533,144.13533,0,0,0,27.7368-20.83676c24.19595-29.738.83786,36.29029,6.16773,53.56207.67657,7.39516.26167,13.11378-.98576,17.59077a20.08346,20.08346,0,0,1-8.62008,12.17872c-10.61628-.77239-25.67755.5572-43.20392,3.21013-.34525-1.77678-.734-3.5651-1.17033-5.384C530.77515,291.4674,513.1005,255.86931,546.23558,236.93917Z" transform="translate(-410.59095 -233.91104)"/><path d="M490.3791,409.24565c45.116-12.05835,93.91431-1.98906,138.70421-19.45854,4.93537-1.1719,15.862-6.16546,16.43466,1.8984,18.82444,134.16646-8.33587,81.63033-112.33023,102.50237-12.77541,1.65523-25.94141,3.54249-38.68271,5.56368-2.61714-26.80034-5.22652-53.51616-7.86372-80.51958.272,95.3045-9.61959,90.09981,86.71635,80.37772,17.54443-5.58382,88.89789,7.07506,86.6984-11.46667a347.86474,347.86474,0,0,0-2.42205-89.71964c.67214-29.73837-27.96725-20.57727-46.00093-13.11964C571.29671,400.58147,528.7867,393.44546,490.3791,409.24565Z" transform="translate(-410.59095 -233.91104)"/><path d="M717.61933,704.502c35.95606-34.70907,67.2621-71.98195,54.63113-125.236-3.04042-63.603-6.51268-127.22662-10.87-190.787,11.35169-140.3409-168.28817-100.73914-257.27258-91.42283-40.15232-.96589-40.20492,28.63653-56.31478,55.84325,15.61268-14.07365,11.39332-46.091,36.67651-48.53571,55.99167-5.80955,248.55585-34.21615,260.03386,41.431,10.33084,87.6258,13.538,173.35766,22.21137,256.96922C776.91144,645.21551,739.76292,674.02507,717.61933,704.502Z" transform="translate(-410.59095 -233.91104)"/><path d="M744.30732,637.002c-1.44312-253.95383,71.99754-372.50763-249.52693-302.89735C561.518,331.598,659.645,304.51911,719.712,346.61629,748.21392,436.88312,738.28181,547.76615,744.30732,637.002Z" transform="translate(-410.59095 -233.91104)"/></svg>